<?xml version="1.0" encoding="UTF-8" standalone="no"?>
<!DOCTYPE svg PUBLIC "-//W3C//DTD SVG 1.1//EN" "http://www.w3.org/Graphics/SVG/1.1/DTD/svg11.dtd">
<svg width="100%" height="100%" viewBox="0 0 1125 2436" version="1.1" xmlns="http://www.w3.org/2000/svg" xmlns:xlink="http://www.w3.org/1999/xlink" xml:space="preserve" xmlns:serif="http://www.serif.com/" style="fill-rule:evenodd;clip-rule:evenodd;stroke-linejoin:round;stroke-miterlimit:2;">
    <rect id="アートボード1" x="0" y="0" width="1125" height="2436" style="fill:none;"/>
    <clipPath id="_clip1">
        <rect id="アートボード11" serif:id="アートボード1" x="0" y="0" width="1125" height="2436"/>
    </clipPath>
    <g clip-path="url(#_clip1)">
        <g transform="matrix(1,0,0,1,-80.9377,398.152)">
            <ellipse cx="643.438" cy="723.829" rx="291.236" ry="130.127" style="fill:rgb(192,192,192);"/>
        </g>
        <g transform="matrix(1,0,0,1,-2.27374e-13,554.633)">
            <path d="M391.782,979.937L391.953,980.939L391.229,979.942L391.782,979.937Z" style="fill:rgb(128,128,128);"/>
        </g>
        <g transform="matrix(1,0,0,1,-2.27374e-13,554.633)">
            <path d="M733.62,976.726L733.633,976.512L733.771,976.511L733.62,976.726Z" style="fill:rgb(128,128,128);"/>
        </g>
        <g transform="matrix(1.36018,0,0,1.36018,10.6365,154.53)">
            <clipPath id="_clip2">
                <rect x="266.106" y="1105.44" width="139.622" height="245.895"/>
            </clipPath>
            <g clip-path="url(#_clip2)">
                <path d="M405.728,1109.07C488.197,1085.82 560.975,1178.63 560.975,1264.31C560.975,1350 491.411,1351.34 405.728,1351.34C491.411,1351.34 563.806,1333.54 541.149,1250.9C523.722,1187.35 476.181,1128.93 405.728,1109.07Z" style="fill:rgb(128,128,128);"/>
            </g>
        </g>
        <g transform="matrix(1.25747,0,0,1.70053,-144.987,-481.618)">
            <path d="M868.245,1477.58L868.503,1477.58L868.503,1554.42C868.503,1560.43 865.343,1566.19 859.717,1570.44C854.09,1574.69 846.46,1577.08 838.503,1577.08L286.497,1577.08C278.54,1577.08 270.91,1574.69 265.283,1570.44C259.657,1566.19 256.497,1560.43 256.497,1554.42L256.497,1477.58L256.755,1477.58C257.37,1481.16 259.119,1484.63 261.941,1487.66C267.558,1493.71 276.721,1497.31 286.497,1497.31C402.531,1497.31 722.469,1497.31 838.503,1497.31C848.279,1497.31 857.442,1493.71 863.059,1487.66C865.881,1484.63 867.63,1481.16 868.245,1477.58Z" style="fill:rgb(128,128,128);"/>
        </g>
        <g transform="matrix(1.25747,0,0,1,-144.663,546.064)">
            <path d="M256.74,1477.48C256.145,1472.82 256.643,1468.03 258.283,1463.5C279.16,1405.74 316.85,1301.47 332.542,1258.06C336.838,1246.18 348.119,1238.26 360.756,1238.26L764.244,1238.26C776.881,1238.26 788.162,1246.18 792.458,1258.06C808.15,1301.47 845.84,1405.74 866.717,1463.5C868.37,1468.07 868.863,1472.9 868.245,1477.58L868.231,1477.69C867.603,1482.39 865.859,1486.94 863.059,1490.93C857.442,1498.93 848.279,1503.69 838.503,1503.69C722.469,1503.69 402.531,1503.69 286.497,1503.69C276.721,1503.69 267.558,1498.93 261.941,1490.93C259.119,1486.91 257.37,1482.32 256.755,1477.58L256.74,1477.48Z" style="fill:rgb(192,192,192);"/>
        </g>
        <g transform="matrix(-1.36018,0,0,1.36018,1114.36,154.53)">
            <clipPath id="_clip3">
                <rect x="266.106" y="1105.44" width="139.622" height="245.895"/>
            </clipPath>
            <g clip-path="url(#_clip3)">
                <path d="M405.728,1351.34C491.411,1351.34 560.975,1350 560.975,1264.31C560.975,1178.63 488.197,1085.82 405.728,1109.07C476.181,1128.93 523.722,1187.35 541.149,1250.9C563.806,1333.54 491.411,1351.34 405.728,1351.34Z" style="fill:rgb(128,128,128);"/>
            </g>
        </g>
        <g transform="matrix(1,0,0,1,-2.27374e-13,546.064)">
            <path d="M510.757,1138.07L415.407,1029.99C445.305,1048.39 500.018,1060.72 562.5,1060.72C622.912,1060.72 676.061,1049.2 706.542,1031.78L615.549,1138.79C682.274,1175.67 727.675,1240.55 746.697,1309.92C777.515,1422.32 679.045,1446.53 562.5,1446.53C445.955,1446.53 347.485,1422.32 378.303,1309.92C393.027,1256.22 423.557,1205.21 467.545,1167.8C480.756,1156.57 495.181,1146.56 510.757,1138.07Z" style="fill:rgb(128,128,128);"/>
        </g>
        <g transform="matrix(1,0,0,1,-2.27374e-13,542.94)">
            <path d="M706.364,1020.11C675.849,1041.21 622.792,1055.16 562.5,1055.16C500.018,1055.16 445.305,1040.18 415.407,1017.81L391.953,985.508L415.407,1017.81C402.536,1008.21 394.258,997.243 391.953,985.508L391.782,984.505L391.764,984.414C391.392,982.508 391.229,980.579 391.229,978.634C391.229,968.446 395.694,958.721 403.821,949.85C403.031,952.698 402.63,955.604 402.63,958.553C402.63,967.632 406.43,976.318 413.385,984.289L413.521,984.445C436.738,1011.1 494.722,1029.98 562.5,1029.98C632.938,1029.98 692.797,1009.59 714.046,981.277L714.172,981.11C719.501,974.035 722.37,966.442 722.37,958.553C722.37,955.604 721.969,952.698 721.178,949.85C729.306,958.721 733.771,968.446 733.771,978.634L733.62,981.295L733.607,981.462C733.041,988.517 730.331,995.329 725.758,1001.77C721.15,1008.26 714.649,1014.38 706.542,1019.99L706.364,1020.11Z" style="fill:rgb(192,192,192);"/>
        </g>
        <g transform="matrix(-1.0762,0.437033,0.371248,0.9142,1303.6,164.698)">
            <path d="M630.051,467.979L630.042,468.142L630,467.019L630.051,467.979Z" style="fill:rgb(128,128,128);"/>
        </g>
        <g transform="matrix(-0.926518,0.37625,0.319615,0.787053,1155.97,6.66716)">
            <ellipse cx="475.992" cy="467.979" rx="154.059" ry="73.583" style="fill:rgb(192,192,192);"/>
        </g>
        <g transform="matrix(-0.926518,0.37625,0.37625,0.926518,1064.73,55.7438)">
            <path d="M218.928,394.396C218.928,428.895 287.96,456.903 372.987,456.903C455.813,456.903 523.46,430.327 526.908,397.067L551.269,647.677L551.408,650.809L551.445,651.628C551.456,652 551.478,652.372 551.494,652.743L551.488,653.209C551.482,653.523 551.47,653.837 551.454,654.151C551.428,654.654 551.389,655.156 551.338,655.656C551.287,656.155 551.223,656.652 551.148,657.147C551.058,657.732 550.952,658.314 550.829,658.893C550.707,659.467 550.569,660.039 550.415,660.606C550.188,661.443 549.927,662.271 549.635,663.088C549.433,663.653 549.216,664.212 548.986,664.765C548.811,665.184 548.628,665.601 548.437,666.013C548.292,666.329 548.141,666.643 547.987,666.955C547.868,667.196 547.746,667.435 547.621,667.673C547.525,667.858 547.428,668.041 547.329,668.224C546.612,669.547 545.82,670.829 544.969,672.07C544.832,672.27 544.694,672.468 544.554,672.666C544.37,672.925 544.183,673.183 543.994,673.439C543.747,673.774 543.495,674.105 543.24,674.433C542.906,674.863 542.565,675.287 542.217,675.706C541.759,676.259 541.289,676.804 540.81,677.339C540.225,677.992 539.627,678.631 539.015,679.258C538.204,680.089 537.371,680.898 536.519,681.686C535.965,682.198 535.404,682.701 534.835,683.195C534.249,683.705 533.655,684.206 533.055,684.698C532.313,685.306 531.56,685.902 530.798,686.485C530.011,687.088 529.214,687.677 528.408,688.254C527.425,688.959 526.429,689.645 525.422,690.314C524.376,691.009 523.318,691.685 522.249,692.345C520.916,693.168 519.567,693.964 518.204,694.737C516.781,695.543 515.343,696.323 513.893,697.078C512.298,697.909 510.688,698.711 509.065,699.485C507.467,700.249 505.856,700.986 504.234,701.699C503.839,701.873 503.444,702.046 503.047,702.216C502.856,702.299 502.664,702.382 502.472,702.464C469.855,716.465 423.697,725.188 372.557,725.188C321.417,725.188 275.259,716.465 242.642,702.464L243.422,702.505L242.642,702.464C212.336,689.511 193.711,672.001 193.62,652.738L193.668,651.653L193.668,651.658L193.62,652.738L193.61,652.583L193.668,651.658L193.668,651.645L193.685,651.196L193.707,650.785L193.846,647.664C202.478,559.095 218.53,394.396 218.53,394.396L218.928,394.396ZM449.696,587.062L448.365,586.806C447.651,586.671 446.937,586.537 446.222,586.406C445.864,586.34 445.505,586.275 445.146,586.21C445.505,586.275 445.864,586.34 446.222,586.406C446.937,586.537 447.651,586.671 448.365,586.806L449.696,587.062C450.139,587.149 450.582,587.236 451.026,587.324L452.128,587.545C452.647,587.649 453.165,587.755 453.683,587.862L454.583,588.05C455.872,588.32 457.159,588.599 458.445,588.885L458.871,588.98C460.8,589.412 462.725,589.862 464.646,590.331L465.085,590.439C466.275,590.732 467.463,591.031 468.649,591.339C469.185,591.477 469.72,591.617 470.254,591.759C471.945,592.207 473.631,592.671 475.312,593.151C475.995,593.345 476.676,593.543 477.357,593.743C477.903,593.903 478.449,594.066 478.995,594.23L479.607,594.415C479.811,594.477 480.015,594.539 480.219,594.601C481.808,595.088 483.392,595.59 484.972,596.109C486.518,596.616 488.059,597.139 489.594,597.679C490.85,598.12 492.101,598.572 493.348,599.035C494.572,599.49 495.792,599.956 497.007,600.434C498.19,600.899 499.37,601.375 500.544,601.863C501.695,602.341 502.841,602.83 503.983,603.332C504.916,603.741 505.845,604.159 506.771,604.585C507.677,605.001 508.579,605.426 509.477,605.859C510.36,606.284 511.238,606.717 512.112,607.159L512.416,607.313C513.026,607.623 513.634,607.937 514.24,608.255L514.662,608.478C516.075,609.226 517.475,609.997 518.861,610.794C520.191,611.559 521.508,612.348 522.808,613.162C523.874,613.83 524.928,614.514 525.971,615.217C526.376,615.49 526.779,615.766 527.18,616.045C527.658,616.376 528.133,616.712 528.604,617.053L528.951,617.304C529.741,617.879 530.521,618.466 531.292,619.065C532.036,619.644 532.77,620.234 533.494,620.837C534.068,621.314 534.635,621.8 535.194,622.294C535.738,622.773 536.274,623.26 536.803,623.755C537.612,624.514 538.404,625.291 539.175,626.088C539.797,626.731 540.406,627.388 540.999,628.058C541.447,628.565 541.887,629.079 542.316,629.602C542.642,629.998 542.962,630.399 543.276,630.805C543.515,631.113 543.75,631.424 543.982,631.738C544.159,631.978 544.334,632.22 544.506,632.463C544.655,632.673 544.803,632.885 544.949,633.097C545.06,633.26 545.17,633.423 545.279,633.586C545.34,633.678 545.401,633.77 545.461,633.862C545.927,634.571 546.372,635.293 546.795,636.029C547.017,636.415 547.232,636.804 547.441,637.197C547.545,637.393 547.647,637.589 547.748,637.786C547.896,638.076 548.039,638.367 548.18,638.659C548.361,639.039 548.536,639.421 548.705,639.806C548.926,640.311 549.135,640.821 549.332,641.336C549.593,642.017 549.833,642.707 550.049,643.403C550.204,643.903 550.348,644.407 550.479,644.914C550.611,645.425 550.73,645.939 550.836,646.456C551,647.255 551.132,648.06 551.232,648.869C551.283,649.283 551.326,649.699 551.36,650.115L551.408,650.806L551.36,650.115C551.326,649.699 551.283,649.283 551.232,648.869C551.132,648.06 551,647.255 550.836,646.456C550.73,645.939 550.611,645.425 550.479,644.914C550.348,644.407 550.204,643.903 550.049,643.403C549.833,642.707 549.593,642.017 549.332,641.336C549.135,640.821 548.926,640.311 548.705,639.806C548.536,639.421 548.361,639.039 548.18,638.659C548.039,638.367 547.896,638.076 547.748,637.786C547.647,637.589 547.545,637.393 547.441,637.197C547.232,636.804 547.017,636.415 546.795,636.029C546.372,635.293 545.927,634.571 545.461,633.862C545.401,633.77 545.34,633.678 545.279,633.586C545.17,633.423 545.06,633.26 544.949,633.097C544.803,632.885 544.655,632.673 544.506,632.463C544.334,632.22 544.159,631.978 543.982,631.738C543.75,631.424 543.515,631.113 543.276,630.805C542.962,630.399 542.642,629.998 542.316,629.602C541.887,629.079 541.447,628.565 540.999,628.058C540.406,627.388 539.797,626.731 539.175,626.088C538.404,625.291 537.612,624.514 536.803,623.755C536.274,623.26 535.738,622.773 535.194,622.294C534.635,621.8 534.068,621.314 533.494,620.837C532.77,620.234 532.036,619.644 531.292,619.065C530.521,618.466 529.741,617.879 528.951,617.304L528.604,617.053C528.133,616.713 527.658,616.376 527.18,616.045C526.779,615.766 526.376,615.49 525.971,615.217C524.928,614.514 523.874,613.83 522.808,613.162C521.508,612.348 520.191,611.559 518.861,610.794C517.475,609.997 516.075,609.226 514.662,608.478L514.24,608.255C513.634,607.937 513.026,607.623 512.416,607.313L512.112,607.159C511.238,606.717 510.36,606.284 509.477,605.859C508.579,605.426 507.677,605.001 506.771,604.585C505.845,604.159 504.916,603.741 503.983,603.332C502.841,602.83 501.695,602.341 500.544,601.863C499.37,601.375 498.19,600.899 497.007,600.434C495.792,599.956 494.572,599.49 493.348,599.035C492.101,598.572 490.85,598.12 489.594,597.679C488.059,597.139 486.518,596.616 484.972,596.109C483.392,595.59 481.808,595.088 480.219,594.601C480.015,594.539 479.811,594.477 479.607,594.415C478.858,594.187 478.108,593.963 477.357,593.743C476.676,593.543 475.995,593.345 475.312,593.151C473.631,592.671 471.945,592.207 470.254,591.759C469.72,591.617 469.185,591.477 468.649,591.339C467.463,591.031 466.275,590.732 465.085,590.439L464.646,590.331C462.725,589.862 460.8,589.412 458.871,588.98L458.445,588.885C457.159,588.599 455.872,588.32 454.583,588.05L453.683,587.862C453.165,587.755 452.647,587.649 452.128,587.545L451.026,587.324C450.582,587.236 450.139,587.149 449.696,587.062ZM444.868,586.16C444.904,586.166 444.94,586.173 444.976,586.179C445.012,586.186 445.048,586.192 445.084,586.199C445.012,586.186 444.94,586.173 444.868,586.16ZM444.158,586.033C444.266,586.052 444.374,586.071 444.482,586.091C444.59,586.11 444.698,586.129 444.806,586.149C444.59,586.11 444.374,586.071 444.158,586.033ZM432.118,584.104L430.753,583.911C430.184,583.831 429.615,583.753 429.046,583.676C428.755,583.637 428.464,583.598 428.173,583.559C428.464,583.598 428.755,583.637 429.046,583.676C429.615,583.753 430.184,583.831 430.753,583.911L432.118,584.104C432.573,584.17 433.028,584.236 433.483,584.302L434.691,584.482C435.198,584.558 435.703,584.635 436.209,584.713C437.981,584.988 439.751,585.274 441.519,585.575C442.079,585.67 442.639,585.766 443.198,585.864C443.477,585.913 443.756,585.962 444.034,586.011C443.756,585.962 443.477,585.913 443.198,585.864C442.639,585.766 442.079,585.67 441.519,585.575C439.751,585.274 437.981,584.988 436.209,584.713C435.703,584.635 435.198,584.558 434.691,584.482L433.483,584.302C433.028,584.236 432.573,584.17 432.118,584.104ZM424.564,583.098C425.162,583.171 425.759,583.246 426.356,583.323C426.94,583.397 427.524,583.473 428.108,583.551C427.524,583.473 426.94,583.397 426.356,583.323C425.759,583.246 425.162,583.171 424.564,583.098ZM424.303,583.065C424.335,583.069 424.368,583.073 424.401,583.077C424.433,583.082 424.466,583.086 424.499,583.09C424.433,583.082 424.368,583.073 424.303,583.065ZM423.976,583.026C424.014,583.03 424.052,583.035 424.09,583.039C424.128,583.044 424.166,583.049 424.205,583.053C424.128,583.044 424.052,583.035 423.976,583.026ZM423.419,582.958C423.501,582.968 423.583,582.978 423.665,582.988C423.747,582.998 423.828,583.008 423.91,583.018L423.419,582.958ZM421.417,582.723C421.734,582.759 422.052,582.796 422.37,582.833C422.687,582.871 423.004,582.908 423.321,582.946C423.004,582.908 422.687,582.871 422.37,582.833C422.052,582.796 421.734,582.759 421.417,582.723ZM322.219,582.896L322.186,582.899L322.219,582.896ZM322.449,582.868L322.416,582.872L322.449,582.868ZM322.788,582.828L322.756,582.832L322.788,582.828ZM322.969,582.807L323,582.804L322.969,582.807ZM421.219,582.7L421.351,582.715C421.307,582.71 421.263,582.705 421.219,582.7ZM420.065,582.569C420.247,582.59 420.428,582.61 420.609,582.631C420.791,582.651 420.972,582.672 421.153,582.692C420.791,582.651 420.428,582.61 420.065,582.569ZM324.126,582.674L324.111,582.675L324.126,582.674ZM419.768,582.536L419.9,582.551C419.856,582.546 419.812,582.541 419.768,582.536ZM418.643,582.413C418.82,582.432 418.996,582.452 419.173,582.471C419.349,582.49 419.526,582.51 419.702,582.529C419.349,582.49 418.996,582.451 418.643,582.413ZM418.416,582.389L418.478,582.395L418.416,582.389ZM418.08,582.353C418.13,582.358 418.179,582.363 418.229,582.369C418.279,582.374 418.329,582.379 418.378,582.385C418.279,582.374 418.179,582.363 418.08,582.353ZM326.864,582.371L326.831,582.375C326.842,582.373 326.853,582.372 326.864,582.371ZM417.649,582.307C417.709,582.314 417.77,582.32 417.831,582.326C417.892,582.333 417.953,582.339 418.014,582.346C417.892,582.333 417.77,582.32 417.649,582.307ZM327.229,582.332L327.233,582.332L327.229,582.332ZM417.449,582.286L417.582,582.3C417.538,582.295 417.494,582.291 417.449,582.286ZM327.582,582.295L327.54,582.299L327.582,582.295ZM417.36,582.277L417.416,582.283L417.36,582.277ZM417.25,582.265L417.316,582.272C417.294,582.27 417.272,582.268 417.25,582.265ZM416.718,582.21C416.773,582.216 416.829,582.222 416.884,582.227C416.94,582.233 416.995,582.239 417.051,582.245C416.94,582.233 416.829,582.222 416.718,582.21ZM415.085,582.045L416.652,582.203L415.085,582.045ZM413.547,581.896L414.985,582.035L413.547,581.896ZM412.809,581.826C412.921,581.836 413.033,581.847 413.144,581.857C413.256,581.868 413.368,581.879 413.48,581.889C413.256,581.868 413.033,581.847 412.809,581.826ZM412.238,581.773C412.317,581.78 412.395,581.788 412.473,581.795C412.552,581.802 412.63,581.809 412.708,581.817C412.552,581.802 412.395,581.787 412.238,581.773ZM411.667,581.721C411.751,581.729 411.835,581.736 411.919,581.744C412.003,581.751 412.087,581.759 412.171,581.767C412.003,581.751 411.835,581.736 411.667,581.721ZM411.465,581.703L411.6,581.715C411.555,581.711 411.51,581.707 411.465,581.703ZM411.263,581.685L411.398,581.697C411.353,581.693 411.308,581.689 411.263,581.685ZM409.476,581.528L411.028,581.663L409.476,581.528ZM405.303,581.194C405.53,581.211 405.757,581.228 405.984,581.245C406.437,581.28 406.89,581.316 407.343,581.352C407.806,581.389 408.269,581.427 408.732,581.466C408.958,581.484 409.183,581.503 409.408,581.523C409.183,581.503 408.958,581.484 408.732,581.466C408.269,581.427 407.806,581.389 407.343,581.352C406.89,581.316 406.437,581.28 405.984,581.245C405.757,581.228 405.53,581.211 405.303,581.194ZM336.494,581.456L336.475,581.458L336.494,581.456ZM338.855,581.267L338.787,581.272C338.809,581.27 338.832,581.268 338.855,581.267ZM339.161,581.243L339.093,581.248C339.115,581.247 339.138,581.245 339.161,581.243ZM339.535,581.214C339.49,581.218 339.444,581.221 339.399,581.225C339.354,581.228 339.308,581.232 339.263,581.235C339.354,581.228 339.444,581.221 339.535,581.214ZM339.944,581.184C339.887,581.188 339.83,581.192 339.774,581.196C339.717,581.201 339.66,581.205 339.603,581.209C339.717,581.201 339.83,581.192 339.944,581.184ZM401.027,580.894C401.256,580.909 401.485,580.924 401.714,580.939C402.159,580.969 402.604,580.999 403.05,581.03C403.505,581.062 403.961,581.095 404.417,581.128C404.644,581.145 404.871,581.161 405.099,581.178C404.871,581.161 404.644,581.145 404.417,581.128C403.961,581.095 403.505,581.062 403.05,581.03C402.604,580.999 402.159,580.969 401.714,580.939C401.485,580.924 401.256,580.909 401.027,580.894ZM341.275,581.086L341.172,581.094C341.207,581.091 341.241,581.089 341.275,581.086ZM341.788,581.05C341.725,581.054 341.662,581.059 341.6,581.063C341.537,581.068 341.474,581.072 341.412,581.076C341.537,581.067 341.662,581.059 341.788,581.05ZM342.027,581.033L341.89,581.043C341.936,581.039 341.981,581.036 342.027,581.033ZM342.267,581.016L342.198,581.021C342.221,581.019 342.244,581.018 342.267,581.016ZM342.54,580.997L342.369,581.009C342.426,581.005 342.483,581.001 342.54,580.997ZM343.123,580.958C343.049,580.963 342.975,580.968 342.9,580.973C342.826,580.978 342.752,580.983 342.677,580.988C342.826,580.978 342.975,580.968 343.123,580.958ZM343.294,580.946L343.226,580.951C343.249,580.949 343.272,580.948 343.294,580.946ZM343.853,580.909L343.812,580.912L343.853,580.909ZM399.1,580.773L398.169,580.718C397.559,580.682 396.948,580.648 396.337,580.615C396.025,580.598 395.713,580.582 395.401,580.566C395.713,580.582 396.025,580.598 396.337,580.615C396.948,580.648 397.559,580.682 398.169,580.718L399.1,580.773L400.03,580.831C400.34,580.85 400.649,580.87 400.959,580.89C400.649,580.87 400.34,580.85 400.03,580.831L399.1,580.773ZM344.215,580.886L344.166,580.889L344.215,580.886ZM345.184,580.824L345.046,580.833C345.092,580.83 345.138,580.827 345.184,580.824ZM345.942,580.778C345.89,580.781 345.838,580.784 345.787,580.787C345.735,580.79 345.683,580.793 345.632,580.797C345.735,580.79 345.838,580.784 345.942,580.778ZM346.183,580.763L346.148,580.765C346.16,580.764 346.171,580.764 346.183,580.763ZM346.341,580.754L346.289,580.757L346.341,580.754ZM346.493,580.745L346.437,580.748L346.493,580.745ZM346.838,580.724L346.735,580.73C346.769,580.728 346.804,580.726 346.838,580.724ZM346.976,580.716L346.942,580.718C346.953,580.718 346.965,580.717 346.976,580.716ZM347.391,580.692L347.253,580.7C347.299,580.698 347.345,580.695 347.391,580.692ZM349.225,580.591C349.167,580.594 349.11,580.597 349.052,580.6C348.994,580.604 348.936,580.607 348.879,580.61C348.994,580.604 349.11,580.597 349.225,580.591ZM349.468,580.578L349.398,580.582C349.422,580.581 349.445,580.58 349.468,580.578ZM349.572,580.573L349.537,580.575C349.549,580.574 349.56,580.574 349.572,580.573ZM349.641,580.569L349.641,580.569ZM350.092,580.546C350.046,580.549 350,580.551 349.953,580.553C349.907,580.556 349.861,580.558 349.815,580.56C349.907,580.556 350,580.551 350.092,580.546ZM395.126,580.552L395.193,580.555L395.126,580.552ZM395.063,580.548L395.099,580.55L395.063,580.548ZM350.335,580.534L350.162,580.543C350.22,580.54 350.277,580.537 350.335,580.534ZM394.811,580.536L394.95,580.543C394.904,580.54 394.857,580.538 394.811,580.536ZM394.533,580.522L394.672,580.529C394.626,580.526 394.58,580.524 394.533,580.522ZM350.926,580.505C350.851,580.508 350.775,580.512 350.7,580.516C350.625,580.519 350.55,580.523 350.474,580.527C350.625,580.519 350.775,580.512 350.926,580.505ZM394.012,580.496C394.087,580.5 394.163,580.503 394.238,580.507C394.313,580.511 394.389,580.514 394.464,580.518C394.313,580.511 394.163,580.503 394.012,580.496ZM351.065,580.498L350.996,580.501C351.019,580.5 351.042,580.499 351.065,580.498ZM351.482,580.478C351.424,580.48 351.366,580.483 351.309,580.486C351.251,580.489 351.193,580.492 351.135,580.494C351.251,580.489 351.366,580.483 351.482,580.478ZM393.56,580.474C393.624,580.477 393.687,580.48 393.751,580.483C393.815,580.486 393.879,580.49 393.942,580.493C393.815,580.486 393.687,580.48 393.56,580.474ZM352.039,580.452C351.964,580.455 351.889,580.459 351.813,580.462C351.738,580.466 351.662,580.469 351.587,580.473C351.738,580.466 351.889,580.459 352.039,580.452ZM393.107,580.453C393.171,580.456 393.235,580.459 393.299,580.462C393.363,580.465 393.426,580.468 393.49,580.471C393.363,580.465 393.235,580.459 393.107,580.453ZM392.933,580.445L393.003,580.448C392.98,580.447 392.956,580.446 392.933,580.445ZM352.144,580.447L352.159,580.446L352.144,580.447ZM392.829,580.44L392.864,580.442C392.852,580.441 392.84,580.441 392.829,580.44ZM392.48,580.424C392.521,580.426 392.562,580.428 392.602,580.43C392.643,580.432 392.684,580.434 392.724,580.435C392.643,580.432 392.562,580.428 392.48,580.424ZM352.492,580.431L352.457,580.432C352.469,580.432 352.481,580.431 352.492,580.431ZM391.748,580.392C391.823,580.395 391.899,580.399 391.975,580.402C392.05,580.405 392.126,580.409 392.201,580.412C392.05,580.405 391.899,580.399 391.748,580.392ZM391.468,580.38L391.573,580.384C391.538,580.383 391.503,580.381 391.468,580.38ZM391.294,580.373L391.399,580.377C391.364,580.375 391.329,580.374 391.294,580.373ZM353.911,580.369L353.864,580.371L353.911,580.369ZM390.91,580.356C390.945,580.358 390.979,580.359 391.014,580.361C391.049,580.362 391.084,580.364 391.119,580.365C391.049,580.362 390.979,580.359 390.91,580.356ZM354.274,580.354L354.261,580.354L354.274,580.354ZM390.7,580.348L390.84,580.354C390.793,580.352 390.746,580.35 390.7,580.348ZM390.455,580.338L390.63,580.345C390.572,580.343 390.513,580.34 390.455,580.338ZM354.587,580.341L354.552,580.342C354.564,580.342 354.575,580.341 354.587,580.341ZM389.65,580.306C389.767,580.311 389.884,580.315 390,580.32C390.117,580.324 390.234,580.329 390.35,580.334C390.117,580.324 389.884,580.315 389.65,580.306ZM354.797,580.332L354.8,580.332L354.797,580.332ZM355.044,580.322L355.032,580.323L355.044,580.322ZM355.182,580.317L355.195,580.317L355.182,580.317ZM389.265,580.291C389.317,580.293 389.37,580.295 389.423,580.297C389.475,580.299 389.528,580.301 389.58,580.303C389.475,580.299 389.37,580.295 389.265,580.291ZM355.593,580.301L355.541,580.303L355.593,580.301ZM389.177,580.288L389.205,580.289L389.177,580.288ZM389.055,580.284L389.125,580.286C389.101,580.285 389.078,580.284 389.055,580.284ZM356.233,580.277L356.128,580.281C356.163,580.28 356.198,580.278 356.233,580.277ZM388.388,580.259C388.476,580.262 388.564,580.266 388.651,580.269C388.739,580.272 388.827,580.275 388.914,580.278C388.739,580.272 388.564,580.266 388.388,580.259ZM356.33,580.274L356.288,580.275L356.33,580.274ZM356.759,580.258L356.689,580.261C356.712,580.26 356.736,580.259 356.759,580.258ZM388.037,580.247C388.078,580.248 388.119,580.25 388.16,580.251C388.201,580.253 388.242,580.254 388.283,580.256C388.201,580.253 388.119,580.25 388.037,580.247ZM357.04,580.248L357.042,580.248L357.04,580.248ZM387.721,580.236L387.897,580.242C387.838,580.24 387.78,580.238 387.721,580.236ZM357.356,580.237L357.286,580.24C357.309,580.239 357.333,580.238 357.356,580.237ZM387.264,580.221C387.329,580.223 387.393,580.225 387.458,580.227C387.522,580.229 387.587,580.231 387.651,580.234C387.522,580.229 387.393,580.225 387.264,580.221ZM357.568,580.23L357.553,580.231L357.568,580.23ZM357.672,580.227L357.637,580.228C357.649,580.227 357.661,580.227 357.672,580.227ZM357.989,580.216C357.948,580.217 357.907,580.219 357.866,580.22C357.825,580.222 357.784,580.223 357.743,580.224C357.825,580.222 357.907,580.219 357.989,580.216ZM386.948,580.21C386.989,580.212 387.03,580.213 387.071,580.214C387.112,580.216 387.153,580.217 387.194,580.218C387.112,580.216 387.03,580.213 386.948,580.21ZM358.411,580.203C358.364,580.204 358.317,580.206 358.27,580.207C358.223,580.209 358.176,580.21 358.129,580.212C358.223,580.209 358.317,580.206 358.411,580.203ZM386.737,580.204L386.878,580.208C386.831,580.207 386.784,580.205 386.737,580.204ZM386.491,580.196L386.667,580.201C386.608,580.2 386.549,580.198 386.491,580.196ZM358.622,580.196L358.587,580.197C358.598,580.197 358.61,580.196 358.622,580.196ZM386.315,580.19L386.42,580.194C386.385,580.193 386.35,580.191 386.315,580.19ZM385.985,580.18L386.028,580.182L385.985,580.18ZM385.681,580.171L385.822,580.175C385.775,580.174 385.728,580.173 385.681,580.171ZM385.532,580.167L385.575,580.168L385.532,580.167ZM384.799,580.146C384.899,580.149 384.999,580.152 385.099,580.154C385.199,580.157 385.299,580.16 385.399,580.163C385.199,580.157 384.999,580.152 384.799,580.146ZM384.376,580.135L384.552,580.139C384.494,580.138 384.435,580.136 384.376,580.135ZM383.881,580.122C383.952,580.124 384.023,580.125 384.093,580.127C384.164,580.129 384.235,580.131 384.305,580.133C384.164,580.129 384.023,580.125 383.881,580.122ZM361.302,580.12L361.267,580.121C361.278,580.121 361.29,580.12 361.302,580.12ZM383.599,580.115L383.705,580.117C383.669,580.117 383.634,580.116 383.599,580.115ZM382.077,580.08L382.148,580.081C382.124,580.081 382.101,580.08 382.077,580.08ZM381.758,580.073C381.8,580.074 381.841,580.075 381.882,580.076C381.924,580.076 381.965,580.077 382.006,580.078C381.924,580.076 381.841,580.075 381.758,580.073ZM381.51,580.068L381.688,580.072C381.628,580.07 381.569,580.069 381.51,580.068ZM363.709,580.066L363.639,580.067L363.709,580.066ZM381.191,580.062C381.233,580.063 381.274,580.063 381.315,580.064C381.357,580.065 381.398,580.066 381.439,580.067C381.357,580.065 381.274,580.063 381.191,580.062ZM381.145,580.061L381.12,580.06L381.145,580.061ZM381.039,580.059L381.066,580.059L381.039,580.059ZM380.552,580.05C380.594,580.051 380.635,580.051 380.677,580.052C380.718,580.053 380.759,580.054 380.801,580.054C380.718,580.053 380.635,580.051 380.552,580.05ZM364.703,580.047L364.667,580.048C364.679,580.048 364.691,580.048 364.703,580.047ZM364.845,580.045L364.774,580.046C364.797,580.046 364.821,580.045 364.845,580.045ZM365.129,580.04L365.077,580.041L365.129,580.04ZM379.629,580.034C379.682,580.035 379.735,580.036 379.789,580.037C379.842,580.038 379.895,580.039 379.949,580.039C379.842,580.038 379.735,580.036 379.629,580.034ZM365.662,580.032L365.591,580.033C365.615,580.032 365.638,580.032 365.662,580.032ZM378.49,580.018C378.662,580.02 378.834,580.022 379.006,580.025C379.178,580.027 379.35,580.03 379.522,580.033C379.178,580.027 378.834,580.022 378.49,580.018ZM365.816,580.029L365.784,580.03L365.816,580.029ZM365.982,580.027L365.911,580.028C365.935,580.027 365.959,580.027 365.982,580.027ZM366.267,580.023L366.125,580.025C366.172,580.024 366.219,580.023 366.267,580.023ZM366.409,580.021L366.338,580.022C366.362,580.021 366.386,580.021 366.409,580.021ZM366.765,580.016L366.623,580.018C366.67,580.017 366.718,580.017 366.765,580.016ZM378.099,580.013C378.146,580.013 378.194,580.014 378.241,580.015C378.289,580.015 378.336,580.016 378.384,580.016C378.289,580.015 378.194,580.014 378.099,580.013ZM366.897,580.014L366.838,580.015L366.897,580.014ZM367.015,580.013L366.944,580.014L367.015,580.013ZM367.228,580.01L367.158,580.011L367.228,580.01ZM377.886,580.01L377.926,580.011L377.886,580.01ZM377.827,580.009L377.859,580.01L377.827,580.009ZM367.335,580.009L367.265,580.01L367.335,580.009ZM367.465,580.007L367.409,580.008L367.465,580.007ZM377.422,580.005L377.425,580.005L377.422,580.005ZM367.821,580.004L367.764,580.004L367.821,580.004ZM377.172,580.002L377.243,580.003C377.22,580.003 377.196,580.002 377.172,580.002ZM368.084,580.001L368.013,580.002L368.084,580.001ZM376.494,579.996L376.601,579.997C376.565,579.996 376.53,579.996 376.494,579.996ZM368.977,579.993L368.905,579.993C368.929,579.993 368.953,579.993 368.977,579.993ZM376.066,579.992L376.208,579.993C376.161,579.993 376.113,579.993 376.066,579.992ZM375.708,579.99L375.887,579.991C375.827,579.99 375.768,579.99 375.708,579.99ZM369.548,579.989L369.405,579.99C369.453,579.989 369.501,579.989 369.548,579.989ZM374.743,579.984C374.862,579.984 374.981,579.985 375.1,579.986C375.22,579.986 375.339,579.987 375.458,579.988C375.22,579.986 374.981,579.985 374.743,579.984ZM369.834,579.987L369.799,579.987C369.811,579.987 369.822,579.987 369.834,579.987ZM369.977,579.986L369.906,579.986C369.93,579.986 369.954,579.986 369.977,579.986ZM370.085,579.985L370.028,579.986L370.085,579.985ZM372.987,579.979L374.635,579.983L372.987,579.979ZM370.586,579.983L370.533,579.983L370.586,579.983ZM370.801,579.982L370.765,579.982C370.777,579.982 370.789,579.982 370.801,579.982ZM370.98,579.981L370.872,579.982L370.98,579.981ZM371.266,579.98L371.194,579.981L371.266,579.98ZM372.7,579.979L372.88,579.979C372.82,579.979 372.76,579.979 372.7,579.979ZM372.485,579.979L372.413,579.979L372.485,579.979ZM372.593,579.979L372.557,579.979L372.593,579.979Z" style="fill:rgb(128,128,128);"/>
        </g>
        <g transform="matrix(-0.926518,0.37625,0.37625,0.926518,954.886,-4.66028)">
            <path d="M402.63,645.025C402.63,645.025 507.784,645.168 530.886,645.025C553.988,644.882 531.81,583.02 553.064,572.598C574.318,562.177 605.996,546.196 605.996,546.196" style="fill:none;"/>
        </g>
        <g transform="matrix(-0.916356,0.0637418,-0.0890442,-1.2801,1387.51,1466.28)">
            <path d="M117.494,623.077C225.687,621.701 331.977,636.005 331.977,654.298C331.977,672.591 191.309,686.398 83.105,685.6C45.608,685.323 26.944,670.812 26.944,652.519C26.944,634.226 49.321,623.944 117.494,623.077Z" style="fill:rgb(192,192,192);"/>
        </g>
        <g transform="matrix(-0.400548,-0.227905,-0.368642,0.647897,956.248,404.125)">
            <ellipse cx="347.209" cy="658.492" rx="18.895" ry="25.011" style="fill:rgb(192,192,192);"/>
        </g>
        <g transform="matrix(-0.926518,0.37625,0.37625,0.926518,954.886,-4.66028)">
            <path d="M638.039,570.401C630.82,569.859 621.662,569.773 614.897,571.783C601.919,575.64 592.834,582.365 585.558,596.762C581.96,603.882 568.97,627.644 560.745,657.329C553.874,682.13 548.239,705.875 541.471,715.976C526.521,738.284 516.024,740.747 491.953,745.762C469.399,750.46 411.376,752.557 404.154,752.803L403.413,752.827C396.9,752.827 391.612,747.151 391.612,740.16C391.612,733.168 396.9,727.492 403.413,727.492L403.413,727.409C403.413,727.409 403.59,727.442 403.929,727.504C404.862,727.547 405.767,727.707 406.631,727.969C416.806,729.652 449.307,734.34 478.106,730.989C502.039,728.205 520.109,723.903 530.728,698.407C540.881,674.03 551.703,626.728 562.09,606.626C571.576,588.269 579.256,574.086 592.019,562.809C604.353,551.911 617.349,544.677 620.945,546.468C620.753,546.636 620.576,546.822 620.417,547.023C617.441,550.797 621.585,559.034 629.664,565.405C632.444,567.597 635.329,569.285 638.039,570.401Z" style="fill:rgb(192,192,192);"/>
        </g>
        <g transform="matrix(1,0,0,1,1.55419,-62.488)">
            <ellipse cx="560.946" cy="1556.11" rx="158.9" ry="68.529" style="fill:rgb(192,192,192);"/>
        </g>
        <g transform="matrix(1,0,0,1,-22.0709,494.296)">
            <path d="M344.003,712.011C396.483,746.296 484.689,768.811 584.571,768.811C684.453,768.811 772.659,746.296 825.139,712.011L626.608,999.321L542.534,999.321L344.003,712.011Z" style="fill:rgb(128,128,128);"/>
        </g>
        <path d="M701.856,463.289C694.177,469.016 684.81,472.161 675.119,472.161C663.257,472.161 651.88,467.449 643.493,459.061C596.819,412.388 509.996,325.564 463.323,278.891C454.935,270.504 450.223,259.127 450.223,247.265C450.223,235.403 454.935,224.027 463.323,215.639C463.323,215.639 463.324,215.638 463.324,215.638C471.712,207.25 483.088,202.538 494.95,202.538C506.812,202.538 518.188,207.25 526.576,215.638C573.249,262.311 660.073,349.135 706.746,395.808C715.134,404.196 719.846,415.572 719.846,427.434C719.846,436.496 717.095,445.276 712.057,452.655L876.027,616.625L873.339,617.621C870.909,618.465 868.479,619.308 866.049,620.152L860.512,621.946L701.856,463.289Z" style="fill:rgb(128,128,128);"/>
    </g>
</svg>
